<?xml version="1.0" encoding="UTF-8"?><svg xmlns="http://www.w3.org/2000/svg" xmlns:xlink="http://www.w3.org/1999/xlink" fill-opacity="1" color-rendering="auto" color-interpolation="auto" text-rendering="auto" stroke="black" stroke-linecap="square" width="671" stroke-miterlimit="10" shape-rendering="auto" stroke-opacity="1" fill="black" stroke-dasharray="none" font-weight="normal" stroke-width="1" height="390" font-family="'Dialog'" font-style="normal" stroke-linejoin="miter" font-size="12px" stroke-dashoffset="0" image-rendering="auto">
  <!--Generated by ySVG 2.5-->
  <defs id="genericDefs"/>
  <g>
    <defs id="defs1">
      <clipPath clipPathUnits="userSpaceOnUse" id="clipPath1">
        <path d="M0 0 L671 0 L671 390 L0 390 L0 0 Z"/>
      </clipPath>
      <clipPath clipPathUnits="userSpaceOnUse" id="clipPath2">
        <path d="M130 351 L801 351 L801 741 L130 741 L130 351 Z"/>
      </clipPath>
    </defs>
    <g fill="white" text-rendering="geometricPrecision" shape-rendering="geometricPrecision" transform="translate(-130,-351)" stroke="white">
      <rect x="130" width="671" height="390" y="351" clip-path="url(#clipPath2)" stroke="none"/>
    </g>
    <g fill="rgb(153,204,255)" text-rendering="geometricPrecision" shape-rendering="geometricPrecision" transform="matrix(1,0,0,1,-130,-351)" stroke="rgb(153,204,255)">
      <rect x="216" width="52" height="141" y="511" clip-path="url(#clipPath2)" stroke="none"/>
    </g>
    <g text-rendering="geometricPrecision" stroke-miterlimit="1.45" shape-rendering="geometricPrecision" transform="matrix(1,0,0,1,-130,-351)" stroke-linecap="butt">
      <rect fill="none" x="216" width="52" height="141" y="511" clip-path="url(#clipPath2)"/>
    </g>
    <g fill="yellow" text-rendering="geometricPrecision" shape-rendering="geometricPrecision" transform="matrix(1,0,0,1,-130,-351)" stroke="yellow">
      <rect x="277" width="52" height="53" y="599" clip-path="url(#clipPath2)" stroke="none"/>
    </g>
    <g text-rendering="geometricPrecision" stroke-miterlimit="1.45" shape-rendering="geometricPrecision" transform="matrix(1,0,0,1,-130,-351)" stroke-linecap="butt">
      <rect fill="none" x="277" width="52" height="53" y="599" clip-path="url(#clipPath2)"/>
    </g>
    <g fill="rgb(153,204,255)" text-rendering="geometricPrecision" shape-rendering="geometricPrecision" transform="matrix(1,0,0,1,-130,-351)" stroke="rgb(153,204,255)">
      <rect x="408" width="52" height="96" y="556" clip-path="url(#clipPath2)" stroke="none"/>
    </g>
    <g text-rendering="geometricPrecision" stroke-miterlimit="1.45" shape-rendering="geometricPrecision" transform="matrix(1,0,0,1,-130,-351)" stroke-linecap="butt">
      <rect fill="none" x="408" width="52" height="96" y="556" clip-path="url(#clipPath2)"/>
    </g>
    <g fill="yellow" text-rendering="geometricPrecision" shape-rendering="geometricPrecision" transform="matrix(1,0,0,1,-130,-351)" stroke="yellow">
      <rect x="469" width="52" height="118" y="534" clip-path="url(#clipPath2)" stroke="none"/>
    </g>
    <g text-rendering="geometricPrecision" stroke-miterlimit="1.45" shape-rendering="geometricPrecision" transform="matrix(1,0,0,1,-130,-351)" stroke-linecap="butt">
      <rect fill="none" x="469" width="52" height="118" y="534" clip-path="url(#clipPath2)"/>
    </g>
    <g fill="rgb(153,204,255)" text-rendering="geometricPrecision" shape-rendering="geometricPrecision" transform="matrix(1,0,0,1,-130,-351)" stroke="rgb(153,204,255)">
      <rect x="616" width="52" height="63" y="589" clip-path="url(#clipPath2)" stroke="none"/>
    </g>
    <g text-rendering="geometricPrecision" stroke-miterlimit="1.45" shape-rendering="geometricPrecision" transform="matrix(1,0,0,1,-130,-351)" stroke-linecap="butt">
      <rect fill="none" x="616" width="52" height="63" y="589" clip-path="url(#clipPath2)"/>
    </g>
    <g fill="yellow" text-rendering="geometricPrecision" shape-rendering="geometricPrecision" transform="matrix(1,0,0,1,-130,-351)" stroke="yellow">
      <rect x="689" width="52" height="141" y="511" clip-path="url(#clipPath2)" stroke="none"/>
    </g>
    <g text-rendering="geometricPrecision" stroke-miterlimit="1.45" shape-rendering="geometricPrecision" transform="matrix(1,0,0,1,-130,-351)" stroke-linecap="butt">
      <rect fill="none" x="689" width="52" height="141" y="511" clip-path="url(#clipPath2)"/>
      <text x="212.2329" font-size="14px" y="485.0352" clip-path="url(#clipPath2)" font-family="sans-serif" stroke="none" font-weight="bold" xml:space="preserve">Machine</text>
      <text x="210.4419" font-size="14px" y="501.5234" clip-path="url(#clipPath2)" font-family="sans-serif" stroke="none" font-weight="bold" xml:space="preserve">Learning</text>
      <text x="276.8311" font-size="14px" y="586.0352" clip-path="url(#clipPath2)" font-family="sans-serif" stroke="none" font-weight="bold" xml:space="preserve">Engineering</text>
      <text x="372.249" font-size="14px" y="715.0352" clip-path="url(#clipPath2)" font-family="sans-serif" stroke="none" font-weight="bold" xml:space="preserve">Growth of ML-based System</text>
      <text x="147.2236" font-size="14px" y="385.5352" clip-path="url(#clipPath2)" font-family="sans-serif" stroke="none" font-weight="bold" xml:space="preserve">Importance</text>
      <path fill="none" d="M222 682.5 L745 682.5" clip-path="url(#clipPath2)"/>
      <path d="M756 682.5 L744 676.5 L744 688.5 Z" clip-path="url(#clipPath2)" stroke="none"/>
      <path fill="none" d="M188 667.5 L188 407" clip-path="url(#clipPath2)"/>
      <path d="M188 396 L182 408 L194 408 Z" clip-path="url(#clipPath2)" stroke="none"/>
    </g>
  </g>
</svg>
