<?xml version="1.0" encoding="UTF-8"?><svg xmlns="http://www.w3.org/2000/svg" xmlns:xlink="http://www.w3.org/1999/xlink" fill-opacity="1" color-rendering="auto" color-interpolation="auto" text-rendering="auto" stroke="black" stroke-linecap="square" width="985" stroke-miterlimit="10" shape-rendering="auto" stroke-opacity="1" fill="black" stroke-dasharray="none" font-weight="normal" stroke-width="1" height="523" font-family="'Dialog'" font-style="normal" stroke-linejoin="miter" font-size="12px" stroke-dashoffset="0" image-rendering="auto">
  <!--Generated by ySVG 2.5-->
  <defs id="genericDefs"/>
  <g>
    <defs id="defs1">
      <clipPath clipPathUnits="userSpaceOnUse" id="clipPath1">
        <path d="M0 0 L985 0 L985 523 L0 523 L0 0 Z"/>
      </clipPath>
      <clipPath clipPathUnits="userSpaceOnUse" id="clipPath2">
        <path d="M91 308 L1076 308 L1076 831 L91 831 L91 308 Z"/>
      </clipPath>
    </defs>
    <g fill="white" text-rendering="geometricPrecision" shape-rendering="geometricPrecision" transform="translate(-91,-308)" stroke="white">
      <rect x="91" width="985" height="523" y="308" clip-path="url(#clipPath2)" stroke="none"/>
    </g>
    <g text-rendering="geometricPrecision" stroke-miterlimit="1.45" shape-rendering="geometricPrecision" transform="matrix(1,0,0,1,-91,-308)" stroke-linecap="butt">
      <rect fill="none" x="106" width="154" height="135" y="323" clip-path="url(#clipPath2)"/>
      <text x="113.5898" font-size="16px" y="396.5469" clip-path="url(#clipPath2)" font-family="sans-serif" stroke="none" font-weight="bold" xml:space="preserve">Data Preparation</text>
    </g>
    <g fill="rgb(153,204,255)" text-rendering="geometricPrecision" shape-rendering="geometricPrecision" transform="matrix(1,0,0,1,-91,-308)" stroke="rgb(153,204,255)">
      <rect x="506.5" width="154" height="135" y="323" clip-path="url(#clipPath2)" stroke="none"/>
    </g>
    <g text-rendering="geometricPrecision" stroke-miterlimit="1.45" shape-rendering="geometricPrecision" transform="matrix(1,0,0,1,-91,-308)" stroke-linecap="butt">
      <rect fill="none" x="506.5" width="154" height="135" y="323" clip-path="url(#clipPath2)"/>
      <text x="530.4219" font-size="16px" y="396.5469" clip-path="url(#clipPath2)" font-family="sans-serif" stroke="none" font-weight="bold" xml:space="preserve">Data Spliting</text>
    </g>
    <g fill="rgb(153,204,255)" text-rendering="geometricPrecision" shape-rendering="geometricPrecision" transform="matrix(1,0,0,1,-91,-308)" stroke="rgb(153,204,255)">
      <rect x="706.75" width="154" height="135" y="323" clip-path="url(#clipPath2)" stroke="none"/>
    </g>
    <g text-rendering="geometricPrecision" stroke-miterlimit="1.45" shape-rendering="geometricPrecision" transform="matrix(1,0,0,1,-91,-308)" stroke-linecap="butt">
      <rect fill="none" x="706.75" width="154" height="135" y="323" clip-path="url(#clipPath2)"/>
      <text x="748.9023" font-size="16px" y="396.5469" clip-path="url(#clipPath2)" font-family="sans-serif" stroke="none" font-weight="bold" xml:space="preserve">Training</text>
    </g>
    <g fill="yellow" text-rendering="geometricPrecision" shape-rendering="geometricPrecision" transform="matrix(1,0,0,1,-91,-308)" stroke="yellow">
      <rect x="907" width="154" height="135" y="323" clip-path="url(#clipPath2)" stroke="none"/>
    </g>
    <g text-rendering="geometricPrecision" stroke-miterlimit="1.45" shape-rendering="geometricPrecision" transform="matrix(1,0,0,1,-91,-308)" stroke-linecap="butt">
      <rect fill="none" x="907" width="154" height="135" y="323" clip-path="url(#clipPath2)"/>
      <text x="959.0391" font-size="16px" y="387.125" clip-path="url(#clipPath2)" font-family="sans-serif" stroke="none" font-weight="bold" xml:space="preserve">Model</text>
      <text x="952.5898" font-size="16px" y="405.9688" clip-path="url(#clipPath2)" font-family="sans-serif" stroke="none" font-weight="bold" xml:space="preserve">Release</text>
    </g>
    <g fill="rgb(153,204,255)" text-rendering="geometricPrecision" shape-rendering="geometricPrecision" transform="matrix(1,0,0,1,-91,-308)" stroke="rgb(153,204,255)">
      <rect x="306.25" width="154" height="135" y="323" clip-path="url(#clipPath2)" stroke="none"/>
    </g>
    <g text-rendering="geometricPrecision" stroke-miterlimit="1.45" shape-rendering="geometricPrecision" transform="matrix(1,0,0,1,-91,-308)" stroke-linecap="butt">
      <rect fill="none" x="306.25" width="154" height="135" y="323" clip-path="url(#clipPath2)"/>
      <text x="364.2578" font-size="16px" y="387.125" clip-path="url(#clipPath2)" font-family="sans-serif" stroke="none" font-weight="bold" xml:space="preserve">Data</text>
      <text x="318.8828" font-size="16px" y="405.9688" clip-path="url(#clipPath2)" font-family="sans-serif" stroke="none" font-weight="bold" xml:space="preserve">Transformation</text>
    </g>
    <g fill="yellow" text-rendering="geometricPrecision" shape-rendering="geometricPrecision" transform="matrix(1,0,0,1,-91,-308)" stroke="yellow">
      <rect x="106" width="154" height="135" y="516" clip-path="url(#clipPath2)" stroke="none"/>
    </g>
    <g text-rendering="geometricPrecision" stroke-miterlimit="1.45" shape-rendering="geometricPrecision" transform="matrix(1,0,0,1,-91,-308)" stroke-linecap="butt">
      <rect fill="none" x="106" width="154" height="135" y="516" clip-path="url(#clipPath2)"/>
      <text x="158.0391" font-size="16px" y="580.125" clip-path="url(#clipPath2)" font-family="sans-serif" stroke="none" font-weight="bold" xml:space="preserve">Model</text>
      <text x="148.4531" font-size="16px" y="598.9688" clip-path="url(#clipPath2)" font-family="sans-serif" stroke="none" font-weight="bold" xml:space="preserve">Roll-out</text>
    </g>
    <g fill="yellow" text-rendering="geometricPrecision" shape-rendering="geometricPrecision" transform="matrix(1,0,0,1,-91,-308)" stroke="yellow">
      <rect x="313" width="154" height="135" y="516" clip-path="url(#clipPath2)" stroke="none"/>
    </g>
    <g text-rendering="geometricPrecision" stroke-miterlimit="1.45" shape-rendering="geometricPrecision" transform="matrix(1,0,0,1,-91,-308)" stroke-linecap="butt">
      <rect fill="none" x="313" width="154" height="135" y="516" clip-path="url(#clipPath2)"/>
      <text x="359.2266" font-size="16px" y="589.5469" clip-path="url(#clipPath2)" font-family="sans-serif" stroke="none" font-weight="bold" xml:space="preserve">Serving</text>
    </g>
    <g fill="yellow" text-rendering="geometricPrecision" shape-rendering="geometricPrecision" transform="matrix(1,0,0,1,-91,-308)" stroke="yellow">
      <rect x="511.75" width="154" height="135" y="681" clip-path="url(#clipPath2)" stroke="none"/>
    </g>
    <g text-rendering="geometricPrecision" stroke-miterlimit="1.45" shape-rendering="geometricPrecision" transform="matrix(1,0,0,1,-91,-308)" stroke-linecap="butt">
      <rect fill="none" x="511.75" width="154" height="135" y="681" clip-path="url(#clipPath2)"/>
      <text x="557.6445" font-size="16px" y="745.125" clip-path="url(#clipPath2)" font-family="sans-serif" stroke="none" font-weight="bold" xml:space="preserve">Testing</text>
      <text x="573.2969" font-size="16px" y="763.9688" clip-path="url(#clipPath2)" font-family="sans-serif" stroke="none" font-weight="bold" xml:space="preserve">A/B</text>
    </g>
    <g fill="yellow" text-rendering="geometricPrecision" shape-rendering="geometricPrecision" transform="matrix(1,0,0,1,-91,-308)" stroke="yellow">
      <rect x="511.75" width="154" height="135" y="516" clip-path="url(#clipPath2)" stroke="none"/>
    </g>
    <g text-rendering="geometricPrecision" stroke-miterlimit="1.45" shape-rendering="geometricPrecision" transform="matrix(1,0,0,1,-91,-308)" stroke-linecap="butt">
      <rect fill="none" x="511.75" width="154" height="135" y="516" clip-path="url(#clipPath2)"/>
      <text x="543.4023" font-size="16px" y="589.5469" clip-path="url(#clipPath2)" font-family="sans-serif" stroke="none" font-weight="bold" xml:space="preserve">Monitoring</text>
      <rect fill="none" x="706.75" width="154" height="135" y="516" clip-path="url(#clipPath2)"/>
      <text x="748.9883" font-size="16px" y="589.5469" clip-path="url(#clipPath2)" font-family="sans-serif" stroke="none" font-weight="bold" xml:space="preserve">Analysis</text>
      <path fill="none" d="M660.5 390.5 L706.7601 390.5" clip-path="url(#clipPath2)"/>
      <path fill="none" d="M860.75 390.5 L907 390.5" clip-path="url(#clipPath2)"/>
      <path fill="none" d="M260 390.5 L306.25 390.5" clip-path="url(#clipPath2)"/>
      <path fill="none" d="M460.25 390.5 L506.5 390.5" clip-path="url(#clipPath2)"/>
      <path fill="none" d="M260 583.5 L313 583.5" clip-path="url(#clipPath2)"/>
      <path fill="none" d="M467 647.4245 L511.75 684.5755" clip-path="url(#clipPath2)"/>
      <path fill="none" d="M467 583.5 L511.75 583.5" clip-path="url(#clipPath2)"/>
      <path fill="none" d="M665.75 583.5 L706.75 583.5" clip-path="url(#clipPath2)"/>
    </g>
  </g>
</svg>
