<?xml version="1.0" encoding="UTF-8"?><svg xmlns="http://www.w3.org/2000/svg" xmlns:xlink="http://www.w3.org/1999/xlink" fill-opacity="1" color-rendering="auto" color-interpolation="auto" text-rendering="auto" stroke="black" stroke-linecap="square" width="599" stroke-miterlimit="10" shape-rendering="auto" stroke-opacity="1" fill="black" stroke-dasharray="none" font-weight="normal" stroke-width="1" height="462" font-family="'Dialog'" font-style="normal" stroke-linejoin="miter" font-size="12px" stroke-dashoffset="0" image-rendering="auto">
  <!--Generated by ySVG 2.5-->
  <defs id="genericDefs"/>
  <g>
    <defs id="defs1">
      <clipPath clipPathUnits="userSpaceOnUse" id="clipPath1">
        <path d="M0 0 L599 0 L599 462 L0 462 L0 0 Z"/>
      </clipPath>
      <clipPath clipPathUnits="userSpaceOnUse" id="clipPath2">
        <path d="M258 264 L857 264 L857 726 L258 726 L258 264 Z"/>
      </clipPath>
    </defs>
    <g fill="white" text-rendering="geometricPrecision" shape-rendering="geometricPrecision" transform="translate(-258,-264)" stroke="white">
      <rect x="258" width="599" height="462" y="264" clip-path="url(#clipPath2)" stroke="none"/>
    </g>
    <g text-rendering="geometricPrecision" stroke-miterlimit="1.45" shape-rendering="geometricPrecision" transform="matrix(1,0,0,1,-258,-264)" stroke-linecap="butt">
      <rect fill="none" x="453" width="221" height="169" y="389" clip-path="url(#clipPath2)"/>
      <text x="538.0396" font-size="14px" y="408.5352" clip-path="url(#clipPath2)" font-family="sans-serif" stroke="none" font-weight="bold" xml:space="preserve">Docker</text>
      <rect fill="none" x="443" width="243" height="301" y="279" clip-path="url(#clipPath2)"/>
      <text x="509.0708" font-size="14px" y="298.5352" clip-path="url(#clipPath2)" font-family="sans-serif" stroke="none" font-weight="bold" xml:space="preserve">Kubernetes Job</text>
      <rect fill="none" x="273" width="169" height="53" y="605" clip-path="url(#clipPath2)"/>
      <text x="328.748" font-size="14px" y="636.791" clip-path="url(#clipPath2)" font-family="sans-serif" stroke="none" font-weight="bold" xml:space="preserve">/data-0</text>
      <rect fill="none" x="273" width="169" height="53" y="658" clip-path="url(#clipPath2)"/>
      <text x="275.6978" font-size="14px" y="689.791" clip-path="url(#clipPath2)" font-family="sans-serif" stroke="none" font-weight="bold" xml:space="preserve">Volume/ObjectStorage</text>
      <rect fill="none" x="673" width="169" height="53" y="605" clip-path="url(#clipPath2)"/>
      <text x="728.748" font-size="14px" y="636.791" clip-path="url(#clipPath2)" font-family="sans-serif" stroke="none" font-weight="bold" xml:space="preserve">/data-1</text>
      <rect fill="none" x="673" width="169" height="53" y="658" clip-path="url(#clipPath2)"/>
      <text x="675.6978" font-size="14px" y="689.791" clip-path="url(#clipPath2)" font-family="sans-serif" stroke="none" font-weight="bold" xml:space="preserve">Volume/ObjectStorage</text>
    </g>
    <g fill="yellow" text-rendering="geometricPrecision" shape-rendering="geometricPrecision" transform="matrix(1,0,0,1,-258,-264)" stroke="yellow">
      <rect x="478" width="169" height="97" y="428" clip-path="url(#clipPath2)" stroke="none"/>
    </g>
    <g text-rendering="geometricPrecision" stroke-miterlimit="1.45" shape-rendering="geometricPrecision" transform="matrix(1,0,0,1,-258,-264)" stroke-linecap="butt">
      <rect fill="none" x="478" width="169" height="97" y="428" clip-path="url(#clipPath2)"/>
      <text x="521.0127" font-size="14px" y="481.791" clip-path="url(#clipPath2)" font-family="sans-serif" stroke="none" font-weight="bold" xml:space="preserve">Component</text>
      <path fill="none" d="M357.5 605 L357.5 476.5 L478 476.5" clip-path="url(#clipPath2)"/>
      <path fill="none" d="M647 476.5 L757.5 476.5 L757.5 605" clip-path="url(#clipPath2)"/>
    </g>
  </g>
</svg>
